<svg width="244" height="59" viewBox="0 0 244 59" fill="none" xmlns="http://www.w3.org/2000/svg">
<path d="M28.3349 20.8182L14.9883 47H5.44283L0.840554 20.8182H9.31215L11.1531 38.8523H11.4258L19.2496 20.8182H28.3349ZM38.5281 47.4943C35.7667 47.4943 33.4883 46.9261 31.6928 45.7898C29.9087 44.6534 28.6531 43.0682 27.9258 41.0341C27.1985 39 27.0565 36.6364 27.4996 33.9432C27.9428 31.2614 28.8576 28.9091 30.244 26.8864C31.6303 24.8636 33.4031 23.2898 35.5621 22.1648C37.7212 21.0398 40.1701 20.4773 42.9087 20.4773C45.6587 20.4773 47.9258 21.0455 49.7099 22.1818C51.5053 23.3182 52.7667 24.9034 53.494 26.9375C54.2326 28.9716 54.3803 31.3409 53.9371 34.0455C53.494 36.7273 52.5735 39.0795 51.1758 41.1023C49.7781 43.1136 48.0053 44.6818 45.8576 45.8068C43.7099 46.9318 41.2667 47.4943 38.5281 47.4943ZM39.4656 41.2045C40.4883 41.2045 41.4031 40.8977 42.2099 40.2841C43.0281 39.6705 43.7156 38.8125 44.2724 37.7102C44.8292 36.608 45.2269 35.3295 45.4656 33.875C45.7042 32.4432 45.7269 31.1875 45.5337 30.108C45.3519 29.017 44.9656 28.1705 44.3746 27.5682C43.7837 26.9545 42.9826 26.6477 41.9712 26.6477C40.9485 26.6477 40.0281 26.9602 39.2099 27.5852C38.3917 28.1989 37.7042 29.0568 37.1474 30.1591C36.6019 31.25 36.2099 32.5284 35.9712 33.9943C35.7326 35.4261 35.7042 36.6818 35.886 37.7614C36.0678 38.8409 36.4599 39.6875 37.0621 40.3011C37.6644 40.9034 38.4656 41.2045 39.4656 41.2045ZM56.0423 47L60.4059 20.8182H68.5025L67.7014 25.5909H67.9741C68.7354 23.8636 69.7298 22.5795 70.957 21.7386C72.1843 20.8864 73.5138 20.4602 74.9457 20.4602C75.332 20.4602 75.7184 20.4886 76.1048 20.5455C76.5025 20.5909 76.8775 20.6591 77.2298 20.75L76.0025 28.0114C75.6161 27.8636 75.1104 27.7557 74.4854 27.6875C73.8604 27.608 73.2923 27.5682 72.7809 27.5682C71.7923 27.5682 70.8718 27.7898 70.0195 28.233C69.1786 28.6648 68.4627 29.2727 67.8718 30.0568C67.2923 30.8295 66.9116 31.7386 66.7298 32.7841L64.3775 47H56.0423ZM96.6062 20.8182L95.5664 26.9545H79.0494L80.0891 20.8182H96.6062ZM84.5721 14.5455H92.9073L88.8846 38.767C88.805 39.2784 88.8164 39.6932 88.9187 40.0114C89.0323 40.3182 89.2369 40.5398 89.5323 40.6761C89.8391 40.8011 90.2141 40.8636 90.6573 40.8636C90.9641 40.8636 91.305 40.8295 91.68 40.7614C92.055 40.6932 92.3391 40.642 92.5323 40.608L92.805 46.625C92.3619 46.75 91.7653 46.892 91.0153 47.0511C90.2766 47.2216 89.413 47.3295 88.4244 47.375C86.4244 47.4545 84.771 47.2216 83.4641 46.6761C82.1687 46.1193 81.2539 45.2557 80.7198 44.0852C80.1971 42.9148 80.0948 41.4489 80.413 39.6875L84.5721 14.5455ZM108.385 47.4943C105.646 47.4943 103.373 46.9545 101.566 45.875C99.771 44.7841 98.5096 43.233 97.7823 41.2216C97.055 39.1989 96.9244 36.7955 97.3903 34.0114C97.8448 31.3068 98.771 28.9432 100.169 26.9205C101.578 24.8864 103.35 23.3068 105.487 22.1818C107.623 21.0455 110.004 20.4773 112.629 20.4773C114.493 20.4773 116.146 20.767 117.589 21.3466C119.032 21.9261 120.225 22.7898 121.169 23.9375C122.112 25.0739 122.754 26.4716 123.095 28.1307C123.436 29.7898 123.424 31.6932 123.061 33.8409L122.737 35.9205H99.9982L100.765 31.0795H115.765C115.902 30.1932 115.828 29.4034 115.544 28.7102C115.26 28.017 114.799 27.4773 114.163 27.0909C113.538 26.6932 112.771 26.4943 111.862 26.4943C110.941 26.4943 110.078 26.7102 109.271 27.142C108.475 27.5625 107.799 28.1307 107.243 28.8466C106.686 29.5625 106.322 30.3693 106.152 31.267L105.248 36.2273C105.066 37.3295 105.118 38.2727 105.402 39.0568C105.686 39.8409 106.174 40.4432 106.868 40.8636C107.561 41.2727 108.453 41.4773 109.544 41.4773C110.271 41.4773 110.953 41.3807 111.589 41.1875C112.225 40.983 112.794 40.6818 113.294 40.2841C113.805 39.875 114.22 39.3807 114.538 38.8011L122.14 39.0227C121.527 40.7386 120.578 42.233 119.294 43.5057C118.01 44.767 116.441 45.75 114.589 46.4545C112.748 47.1477 110.68 47.4943 108.385 47.4943ZM136.216 20.8182L139.079 29.4432L144.994 20.8182H153.397L143.903 33.9091L149.306 47H140.971L137.596 38.3068L131.477 47H123.022L132.806 33.9091L127.761 20.8182H136.216ZM171.427 47L175.774 20.8182H186.589C188.549 20.8182 190.181 21.1974 191.485 21.956C192.789 22.7145 193.714 23.7756 194.26 25.1392C194.805 26.5028 194.929 28.0838 194.63 29.8821C194.341 31.6974 193.689 33.2784 192.674 34.625C191.669 35.9716 190.373 37.0156 188.788 37.7571C187.203 38.4986 185.4 38.8693 183.38 38.8693H176.72L177.551 33.8835H183.048C184.011 33.8835 184.842 33.7173 185.541 33.3849C186.248 33.0526 186.815 32.5881 187.241 31.9915C187.667 31.3949 187.949 30.6918 188.085 29.8821C188.213 29.0724 188.162 28.3736 187.931 27.7855C187.701 27.1889 187.288 26.7287 186.691 26.4048C186.103 26.081 185.336 25.919 184.39 25.919H181.271L177.755 47H171.427ZM204.695 47H194.876L199.223 20.8182H208.747C211.406 20.8182 213.622 21.3594 215.395 22.4418C217.176 23.5156 218.433 25.0582 219.166 27.0696C219.908 29.0724 220.048 31.4588 219.588 34.2287C219.145 36.9048 218.254 39.1974 216.916 41.1065C215.587 43.0156 213.882 44.4773 211.803 45.4915C209.723 46.4972 207.354 47 204.695 47ZM202.087 41.6051H205.091C206.557 41.6051 207.852 41.3409 208.977 40.8125C210.111 40.2756 211.048 39.419 211.79 38.2429C212.531 37.0582 213.06 35.5028 213.375 33.5767C213.682 31.7358 213.669 30.2827 213.337 29.2173C213.013 28.1435 212.382 27.3764 211.445 26.9162C210.516 26.4474 209.301 26.2131 207.801 26.2131H204.656L202.087 41.6051ZM221.173 47L225.52 20.8182H243.392L242.523 25.9574H230.979L230.109 31.3267H240.516L239.646 36.4787H229.24L227.501 47H221.173Z" fill="white"/>
<path d="M171.231 0.840908L161.72 58.25H153.674L163.186 0.840908H171.231Z" fill="#72DACA"/>
</svg>
